<?xml version="1.0"?>
<svg xmlns="http://www.w3.org/2000/svg" height="512px" viewBox="-96 0 512 512.001" width="512px"><g><path d="m159.601562 190.382812c-8.285156 0-15-6.71875-15-15 0-8.285156 6.714844-15 15-15h145.109376l14.414062-143.886718c.425781-4.21875-.957031-8.417969-3.800781-11.558594-2.847657-3.144531-6.882813-4.9375-11.121094-4.9375h-249.035156c-30.421875 0-55.167969 24.714844-55.167969 55.09375v421.804688c0 25.910156 13.953125 35.101562 25.902344 35.101562 9.152344 0 18.273437-4.964844 27.105468-14.761719.246094-.273437.480469-.550781.703126-.839843l113.226562-145.636719h105.128906c7.707032 0 14.15625-5.835938 14.925782-13.503907l14.714843-146.875zm0 0" data-original="#000000" class="active-path" data-old_color="#000000" fill="#FFFFFF"/></g> </svg>
